<?xml version="1.0" standalone="no"?>
<!DOCTYPE svg PUBLIC "-//W3C//DTD SVG 20010904//EN"
 "http://www.w3.org/TR/2001/REC-SVG-20010904/DTD/svg10.dtd">
<svg version="1.0" xmlns="http://www.w3.org/2000/svg"
 width="580.000000pt" height="580.000000pt" viewBox="0 0 580.000000 580.000000"
 preserveAspectRatio="xMidYMid meet">
<metadata>
Created by potrace 1.14, written by Peter Selinger 2001-2017
</metadata>
<g transform="translate(0.000000,580.000000) scale(0.100000,-0.100000)"
fill="#000000" stroke="none">
<path d="M3149 5596 c-2 -3 -25 -8 -49 -11 -25 -3 -56 -7 -70 -10 -24 -4 -37
-6 -150 -20 -79 -10 -80 -11 -140 -38 -30 -14 -84 -37 -119 -51 -77 -31 -183
-90 -201 -111 -7 -8 -18 -15 -24 -15 -20 -1 -125 -57 -160 -86 -42 -35 -74
-58 -191 -134 -49 -33 -117 -85 -150 -116 -33 -31 -77 -68 -98 -82 -21 -14
-45 -38 -52 -52 -8 -15 -34 -48 -59 -73 -24 -25 -47 -55 -50 -65 -4 -11 -15
-27 -26 -37 -11 -10 -20 -23 -20 -29 0 -6 -9 -17 -20 -23 -24 -16 -148 -273
-167 -348 -33 -131 -34 -232 -8 -522 1 -17 12 -47 23 -65 12 -19 38 -77 58
-129 19 -52 48 -107 63 -124 15 -16 38 -46 51 -65 46 -69 179 -189 249 -225
37 -18 81 -45 97 -58 16 -14 43 -27 59 -30 34 -6 98 -29 105 -38 3 -3 23 -9
45 -13 22 -4 119 -34 215 -66 116 -39 199 -60 245 -64 39 -3 81 -8 95 -11 14
-3 36 -7 50 -10 14 -2 43 -7 65 -10 22 -3 69 -9 105 -14 35 -4 113 -8 171 -7
86 1 111 5 126 19 11 9 29 15 41 12 12 -2 34 3 49 11 16 7 34 14 41 14 6 0 21
9 32 20 38 38 17 129 -39 170 -28 19 -35 21 -62 10 -16 -7 -43 -28 -60 -47
l-30 -35 -92 1 c-51 0 -112 3 -137 5 -25 2 -74 7 -110 10 -36 4 -114 8 -175
10 -66 3 -128 11 -154 20 -24 9 -55 16 -69 16 -14 0 -33 7 -42 15 -10 9 -35
18 -56 20 -103 12 -181 30 -205 46 -14 10 -73 41 -130 68 -57 28 -128 68 -157
90 -29 22 -61 42 -71 46 -10 3 -21 14 -24 25 -3 11 -17 24 -31 30 -14 5 -26
14 -26 20 0 5 -15 27 -33 47 -51 58 -82 118 -121 233 -42 126 -58 216 -57 330
0 73 6 107 46 235 26 83 55 159 64 170 10 11 47 65 83 120 37 55 79 114 95
130 15 17 59 67 96 112 44 53 86 92 120 111 28 17 62 40 75 52 35 33 254 182
277 188 11 3 32 18 48 33 30 30 146 89 176 89 10 0 26 11 35 24 8 14 30 27 48
31 18 4 62 17 99 30 36 13 81 26 100 29 18 4 65 12 103 20 160 31 459 2 515
-50 14 -13 31 -24 38 -24 7 0 26 -18 44 -40 18 -22 40 -42 49 -45 23 -7 81
-65 75 -75 -3 -5 11 -27 30 -50 19 -23 35 -51 35 -61 0 -11 11 -36 25 -57 13
-20 27 -59 30 -87 4 -27 21 -111 37 -185 49 -215 41 -427 -26 -735 -44 -200
-101 -426 -121 -485 -15 -41 -35 -104 -45 -140 -19 -70 -67 -193 -131 -335
-22 -49 -53 -120 -67 -157 -15 -37 -32 -69 -39 -70 -8 -2 -37 -24 -66 -51
-150 -137 -197 -177 -210 -177 -7 0 -29 -17 -48 -37 -20 -21 -47 -47 -61 -59
-14 -12 -31 -30 -39 -41 -8 -11 -33 -32 -56 -48 -24 -15 -43 -34 -43 -42 0 -7
-8 -17 -17 -20 -20 -7 -252 -202 -353 -296 -36 -33 -132 -124 -215 -203 -82
-78 -166 -157 -186 -176 -20 -18 -47 -49 -61 -68 -14 -19 -63 -73 -110 -120
-46 -47 -110 -122 -142 -168 -32 -46 -80 -107 -106 -135 -27 -29 -61 -79 -76
-110 -14 -32 -34 -63 -44 -70 -9 -7 -34 -46 -54 -87 -20 -41 -48 -85 -62 -98
-13 -13 -24 -31 -24 -40 0 -9 -11 -41 -25 -69 -22 -49 -44 -124 -61 -213 -4
-19 -9 -86 -11 -148 -4 -98 -2 -123 19 -188 15 -49 30 -80 43 -87 11 -5 26
-18 33 -28 7 -10 19 -16 27 -12 9 3 22 0 29 -7 16 -12 44 -9 116 13 25 7 52
13 60 12 8 -1 40 22 70 51 31 28 75 61 98 73 23 12 48 34 56 49 8 15 36 48 63
73 26 25 69 68 96 95 26 27 52 54 57 59 6 6 37 51 70 100 33 50 74 106 92 127
64 71 114 132 160 197 26 36 65 89 87 116 59 76 131 186 131 202 0 7 10 18 23
24 21 10 36 30 153 208 82 125 104 161 110 185 3 13 14 26 24 29 9 2 32 34 50
71 18 36 43 76 55 89 12 12 26 33 30 47 4 13 15 36 25 50 45 67 69 107 75 129
4 14 16 33 26 44 10 11 24 36 30 56 6 20 26 63 44 96 96 177 159 305 179 364
24 77 60 124 191 253 71 70 108 97 174 130 80 40 290 189 367 262 19 18 84 73
144 122 73 60 109 96 109 110 1 30 -18 82 -33 87 -7 3 -61 -23 -120 -56 -169
-98 -169 -98 -261 -167 -19 -14 -62 -43 -96 -64 -35 -22 -76 -55 -93 -73 -33
-39 -93 -71 -118 -65 -24 5 -24 58 0 97 18 28 69 195 161 523 45 157 77 307
87 404 3 35 9 67 11 71 3 5 7 101 10 214 4 181 2 214 -16 287 -11 45 -22 109
-25 142 -2 33 -13 77 -25 99 -12 21 -21 47 -21 56 0 9 -13 40 -29 70 -15 30
-32 65 -36 79 -15 52 -63 116 -155 211 -105 108 -150 133 -321 182 -83 24
-219 44 -230 33z m117 -3102 c-8 -16 -38 -76 -65 -134 -57 -120 -128 -253
-188 -355 -23 -38 -49 -90 -58 -115 -9 -25 -28 -58 -44 -75 -35 -37 -63 -86
-86 -147 -10 -27 -21 -48 -26 -48 -5 0 -27 -26 -50 -57 -24 -32 -45 -60 -49
-63 -10 -8 -74 -102 -85 -125 -5 -12 -35 -55 -66 -96 -30 -40 -81 -110 -113
-154 -31 -44 -83 -109 -116 -144 -32 -35 -69 -79 -82 -97 -13 -19 -33 -37 -45
-40 -13 -4 -23 -12 -23 -19 0 -8 -37 -62 -81 -122 -45 -59 -86 -120 -91 -135
-5 -15 -17 -30 -27 -33 -9 -3 -79 -68 -155 -145 -86 -87 -147 -142 -164 -146
-15 -3 -36 -16 -47 -29 -12 -14 -34 -25 -55 -27 -34 -3 -35 -2 -54 52 -33 97
-25 287 17 375 39 81 87 193 87 202 0 5 12 20 26 34 14 13 39 49 56 81 18 34
46 67 68 83 24 17 41 38 45 55 4 16 19 45 34 64 16 20 34 48 40 64 7 16 22 35
34 41 12 7 40 36 62 64 57 74 166 186 186 192 9 3 43 40 75 82 92 122 321 339
578 546 66 54 171 143 231 197 121 109 238 209 243 205 1 -1 -4 -15 -12 -31z"/>
</g>
</svg>
